<?xml version="1.0" standalone="no"?>
<svg xmlns:xlink="http://www.w3.org/1999/xlink" id="wave" style="transform:rotate(0deg); transition: 0.3s" viewBox="0 0 1440 160" version="1.1" xmlns="http://www.w3.org/2000/svg"><defs><linearGradient id="sw-gradient-0" x1="0" x2="0" y1="1" y2="0"><stop stop-color="rgba(255, 255, 255, 1)" offset="0%"/><stop stop-color="rgba(250.304, 250.304, 250.304, 1)" offset="100%"/></linearGradient></defs><path style="transform:translate(0, 0px); opacity:1" fill="url(#sw-gradient-0)" d="M0,16L24,16C48,16,96,16,144,37.3C192,59,240,101,288,112C336,123,384,101,432,93.3C480,85,528,91,576,77.3C624,64,672,32,720,34.7C768,37,816,75,864,90.7C912,107,960,101,1008,96C1056,91,1104,85,1152,93.3C1200,101,1248,123,1296,114.7C1344,107,1392,69,1440,48C1488,27,1536,21,1584,18.7C1632,16,1680,16,1728,16C1776,16,1824,16,1872,21.3C1920,27,1968,37,2016,42.7C2064,48,2112,48,2160,58.7C2208,69,2256,91,2304,98.7C2352,107,2400,101,2448,85.3C2496,69,2544,43,2592,34.7C2640,27,2688,37,2736,42.7C2784,48,2832,48,2880,42.7C2928,37,2976,27,3024,37.3C3072,48,3120,80,3168,101.3C3216,123,3264,133,3312,136C3360,139,3408,133,3432,130.7L3456,128L3456,160L3432,160C3408,160,3360,160,3312,160C3264,160,3216,160,3168,160C3120,160,3072,160,3024,160C2976,160,2928,160,2880,160C2832,160,2784,160,2736,160C2688,160,2640,160,2592,160C2544,160,2496,160,2448,160C2400,160,2352,160,2304,160C2256,160,2208,160,2160,160C2112,160,2064,160,2016,160C1968,160,1920,160,1872,160C1824,160,1776,160,1728,160C1680,160,1632,160,1584,160C1536,160,1488,160,1440,160C1392,160,1344,160,1296,160C1248,160,1200,160,1152,160C1104,160,1056,160,1008,160C960,160,912,160,864,160C816,160,768,160,720,160C672,160,624,160,576,160C528,160,480,160,432,160C384,160,336,160,288,160C240,160,192,160,144,160C96,160,48,160,24,160L0,160Z"/></svg>